<svg data-v-fde0c5aa="" xmlns="http://www.w3.org/2000/svg" viewBox="0 0 300 300" class="iconAbove"><!----><defs data-v-fde0c5aa=""><!----></defs><rect data-v-fde0c5aa="" fill="transparent" x="0" y="0" width="300px" height="300px" class="logo-background-square"></rect><defs data-v-fde0c5aa=""><!----></defs><g data-v-fde0c5aa="" id="f401bd10-6b9a-4074-b8d9-9d4b6512b914" fill="#000000" transform="matrix(2.8279311844232233,0,0,2.8279311844232233,18.614313692663366,178.01783732480877)"><path d="M0.63 0.70L0.49 1.33L1.82 1.60L1.82 9.60L0.49 10.01L0.49 10.50L4.69 10.50L4.83 9.87L3.22 9.60L3.22 6.69L4.12 6.69C5.82 6.69 7.98 6.24 7.98 3.75C7.98 0.91 5.82 0.70 4.12 0.70ZM4.12 1.47C5.45 1.47 6.51 2.00 6.51 3.75C6.51 5.73 5.29 5.92 4.12 5.92L3.22 5.92L3.22 1.47ZM14.46 3.32C14.17 3.19 13.86 3.12 13.54 3.12C12.71 3.12 12.00 3.60 11.37 4.27L11.37 3.12L8.89 3.46L8.96 4.07L10.12 4.30L10.12 9.66L8.90 10.08L8.90 10.50L12.52 10.50L12.66 9.83L11.37 9.63L11.37 4.96C11.75 4.52 12.47 4.24 13.08 4.24C13.15 4.24 13.29 4.24 13.36 4.26L13.73 5.32L14.46 5.19ZM18.86 9.84C17.11 9.84 16.56 8.27 16.56 6.73C16.56 5.28 17.16 3.85 18.66 3.85C20.41 3.85 20.96 5.42 20.96 6.96C20.96 8.41 20.36 9.84 18.86 9.84ZM18.65 3.08C16.41 3.08 15.16 5.00 15.16 6.89C15.16 8.76 16.35 10.61 18.87 10.61C21.11 10.61 22.36 8.69 22.36 6.80C22.36 4.93 21.17 3.08 18.65 3.08ZM24.49 11.07C24.49 11.94 24.42 12.98 23.53 12.98C23.34 12.98 23.10 12.92 22.82 12.81L22.43 11.28L21.73 11.42L21.73 13.29C22.23 13.62 22.79 13.78 23.31 13.78C24.58 13.78 25.75 12.82 25.75 11.10L25.75 3.12L23.28 3.46L23.35 4.03L24.49 4.24ZM24.04 1.08C24.25 1.47 24.58 1.81 24.98 2.02C25.38 1.78 25.72 1.46 25.96 1.05C25.75 0.64 25.42 0.32 25.02 0.11C24.60 0.35 24.28 0.67 24.04 1.08ZM33.80 6.75C33.80 5.00 33.29 3.11 30.80 3.11C29.19 3.11 27.43 4.35 27.43 6.83C27.43 9.25 28.99 10.63 30.84 10.63C31.78 10.63 32.77 10.28 33.68 9.56L33.38 9.03C32.66 9.49 31.98 9.72 31.32 9.72C29.90 9.72 28.83 8.60 28.83 6.75ZM28.87 5.99C28.91 4.62 29.88 3.86 30.76 3.86C31.60 3.86 32.40 4.52 32.40 5.99ZM40.24 5.75L40.94 5.61L40.94 3.75C40.22 3.30 39.48 3.09 38.71 3.09C36.81 3.09 34.99 4.47 34.99 6.86C34.99 9.28 36.60 10.65 38.50 10.65C39.45 10.65 40.38 10.29 41.12 9.58L40.81 9.04C40.24 9.48 39.40 9.73 38.77 9.73C37.13 9.73 36.39 8.26 36.39 6.76C36.39 5.12 37.35 3.86 38.75 3.86C39.07 3.86 39.44 3.95 39.84 4.10ZM46.42 9.20C45.85 9.55 45.43 9.69 45.00 9.69C44.28 9.69 44.18 9.38 44.18 8.36L44.18 4.24L46.42 4.24L46.42 3.47L44.18 3.47L44.18 1.79L43.48 1.79L42.99 3.33L41.82 3.75L41.82 4.24L42.92 4.24L42.92 8.69C42.92 9.83 43.27 10.67 44.51 10.67C45.35 10.67 46.26 10.21 46.69 9.53ZM54.24 9.63L54.24 5.15C54.63 4.63 55.19 4.24 55.93 4.24C56.64 4.24 57.34 4.68 57.34 5.74L57.34 9.66L56.34 10.08L56.34 10.50L59.60 10.50L59.74 9.87L58.60 9.63L58.60 5.74C58.60 3.95 57.68 3.09 56.55 3.09C55.65 3.09 54.67 3.67 54.05 4.55C53.72 3.56 53.09 3.09 52.25 3.09C51.46 3.09 50.50 3.49 49.87 4.27L49.87 3.12L47.39 3.46L47.46 4.07L48.62 4.30L48.62 9.66L47.40 10.08L47.40 10.50L50.72 10.50L50.86 9.83L49.87 9.63L49.87 4.96C50.25 4.52 50.99 4.24 51.59 4.24C52.36 4.24 52.98 4.68 52.98 5.74L52.98 9.66L51.97 10.08L51.97 10.50L55.17 10.50L55.31 9.87ZM64.20 9.84C62.45 9.84 61.91 8.27 61.91 6.73C61.91 5.28 62.51 3.85 64.01 3.85C65.76 3.85 66.30 5.42 66.30 6.96C66.30 8.41 65.70 9.84 64.20 9.84ZM63.99 3.08C61.75 3.08 60.51 5.00 60.51 6.89C60.51 8.76 61.70 10.61 64.22 10.61C66.46 10.61 67.70 8.69 67.70 6.80C67.70 4.93 66.51 3.08 63.99 3.08ZM75.78 5.67C75.74 3.88 75.00 3.09 73.65 3.09C72.88 3.09 71.86 3.50 71.23 4.27L71.23 3.12L68.75 3.46L68.82 4.07L69.99 4.30L69.99 9.66L68.77 10.08L68.77 10.50L72.16 10.50L72.30 9.83L71.23 9.63L71.23 4.96C71.60 4.52 72.44 4.24 73.18 4.24C74.07 4.24 74.52 4.55 74.52 5.95L74.52 9.66L73.44 10.08L73.44 10.50L76.76 10.50L76.90 9.87L75.78 9.63ZM84.04 6.75C84.04 5.00 83.54 3.11 81.05 3.11C79.44 3.11 77.67 4.35 77.67 6.83C77.67 9.25 79.24 10.63 81.09 10.63C82.03 10.63 83.02 10.28 83.93 9.56L83.62 9.03C82.91 9.49 82.22 9.72 81.56 9.72C80.15 9.72 79.07 8.60 79.07 6.75ZM79.11 5.99C79.16 4.62 80.12 3.86 81.00 3.86C81.84 3.86 82.64 4.52 82.64 5.99ZM87.75 11.09C87.30 11.93 87.14 12.52 86.13 12.52C85.88 12.52 85.60 12.49 85.30 12.42L84.91 13.58C85.23 13.68 85.53 13.72 85.81 13.72C86.90 13.72 87.58 13.05 87.99 12.31C88.40 11.59 88.79 10.57 89.29 9.30C89.84 7.94 90.64 6.23 91.52 4.05L92.43 3.64L92.43 3.22L89.94 3.22L89.80 3.89L90.65 4.03L88.72 8.68L88.63 8.29L86.90 3.99L87.74 3.64L87.74 3.22L84.74 3.22L84.60 3.85L85.57 4.09L88.09 10.26C87.98 10.56 87.85 10.85 87.75 11.09Z"></path></g><defs data-v-fde0c5aa=""><linearGradient data-v-fde0c5aa="" gradientTransform="rotate(25)" id="e1a6a723-f965-44d1-a7d6-f25450a39cd3" x1="0%" y1="0%" x2="100%" y2="0%"><stop data-v-fde0c5aa="" offset="0%" stop-color="#000A68" stop-opacity="1"></stop><stop data-v-fde0c5aa="" offset="100%" stop-color="#00C4EE" stop-opacity="1"></stop></linearGradient></defs><g data-v-fde0c5aa="" id="163f23bd-6f5d-41b4-9371-133408712566" stroke="none" fill="url(#e1a6a723-f965-44d1-a7d6-f25450a39cd3)" transform="matrix(1.1425898961914127,0,0,1.1425898961914127,92.87050519042936,64.51817213493322)"><path d="M50 83.854c-18.655 0-33.833-15.178-33.833-33.834 0-18.655 15.178-33.833 33.833-33.833S83.833 31.365 83.833 50.02c0 18.657-15.178 33.834-33.833 33.834zm0-63.666c-16.45 0-29.833 13.383-29.833 29.833S33.55 79.854 50 79.854 79.833 66.47 79.833 50.02 66.45 20.188 50 20.188z"></path><path d="M41.885 33.875h4v32.25h-4zM51.74 54.625h-5.855v-4h5.855c3.516 0 6.375-2.859 6.375-6.375s-2.859-6.375-6.375-6.375h-5.855v-4h5.855c5.721 0 10.375 4.654 10.375 10.375S57.461 54.625 51.74 54.625z"></path></g><!----></svg>